<?xml version="1.0" encoding="UTF-8" standalone="no"?>
<svg xmlns="http://www.w3.org/2000/svg"
     width="926" height="112"
     viewBox="0 0 926 112">
  <title>ACERTECH Logo</title>
  <path d="M 568 85 L 568 104 L 569 105 L 652 105 L 653 104 L 653 85 L 652 84 L 569 84 Z M 242 85 L 242 104 L 243 105 L 326 105 L 327 104 L 327 84 L 243 84 Z M 568 45 L 568 65 L 642 65 L 642 45 Z M 242 46 L 242 65 L 317 65 L 317 46 L 316 45 L 243 45 Z M 775 8 L 775 103 L 798 103 L 798 66 L 799 65 L 858 65 L 859 66 L 859 103 L 882 103 L 882 8 L 859 8 L 859 44 L 858 45 L 799 45 L 798 44 L 798 8 Z M 568 8 L 568 28 L 652 28 L 653 27 L 653 8 Z M 448 8 L 448 27 L 449 28 L 489 28 L 490 29 L 490 103 L 513 103 L 513 29 L 514 28 L 554 28 L 555 27 L 555 8 Z M 341 8 L 341 27 L 342 28 L 403 28 L 404 29 L 405 29 L 409 33 L 409 34 L 410 35 L 410 45 L 409 46 L 409 47 L 408 48 L 408 49 L 407 50 L 406 50 L 404 52 L 403 52 L 402 53 L 341 53 L 341 102 L 342 103 L 364 103 L 365 102 L 365 74 L 366 73 L 393 73 L 396 76 L 396 77 L 397 78 L 397 79 L 399 81 L 399 82 L 401 84 L 401 85 L 403 87 L 403 88 L 404 89 L 404 90 L 406 92 L 406 93 L 407 94 L 407 95 L 409 97 L 409 98 L 410 99 L 410 100 L 412 102 L 412 103 L 438 103 L 437 102 L 437 101 L 435 99 L 435 98 L 434 97 L 434 96 L 432 94 L 432 93 L 430 91 L 430 90 L 429 89 L 429 88 L 428 87 L 428 86 L 426 84 L 426 83 L 424 81 L 424 80 L 423 79 L 423 78 L 421 76 L 421 75 L 420 74 L 420 73 L 418 71 L 418 70 L 417 69 L 417 68 L 418 67 L 419 67 L 421 65 L 422 65 L 427 60 L 427 59 L 429 57 L 429 56 L 430 55 L 430 54 L 431 53 L 431 52 L 432 51 L 432 48 L 433 47 L 433 42 L 434 41 L 434 40 L 433 39 L 433 32 L 432 31 L 432 28 L 431 27 L 431 26 L 430 25 L 430 24 L 429 23 L 429 22 L 427 20 L 427 19 L 422 14 L 421 14 L 419 12 L 418 12 L 417 11 L 416 11 L 415 10 L 414 10 L 413 9 L 409 9 L 408 8 Z M 242 8 L 242 27 L 243 28 L 327 28 L 327 8 Z M 61 8 L 60 9 L 60 10 L 59 11 L 59 12 L 58 13 L 58 14 L 57 15 L 57 16 L 56 17 L 56 18 L 55 19 L 55 20 L 54 21 L 54 22 L 53 23 L 53 24 L 52 25 L 52 26 L 51 27 L 51 28 L 50 29 L 50 30 L 49 31 L 49 32 L 48 33 L 48 34 L 47 35 L 47 36 L 46 37 L 46 38 L 45 39 L 45 40 L 44 41 L 44 42 L 43 43 L 43 44 L 42 45 L 42 46 L 41 47 L 41 48 L 40 49 L 40 50 L 39 51 L 39 52 L 38 53 L 38 54 L 37 55 L 37 56 L 36 57 L 36 58 L 35 59 L 35 60 L 34 61 L 34 62 L 33 63 L 33 64 L 32 65 L 32 66 L 31 67 L 31 68 L 30 69 L 30 70 L 29 71 L 29 72 L 28 73 L 28 74 L 27 75 L 27 76 L 26 77 L 26 78 L 25 79 L 25 80 L 24 81 L 24 82 L 23 83 L 23 84 L 22 85 L 22 86 L 21 87 L 21 88 L 20 89 L 20 90 L 19 91 L 19 92 L 18 93 L 18 94 L 17 95 L 17 96 L 16 97 L 16 98 L 15 99 L 15 100 L 14 101 L 14 102 L 13 103 L 37 103 L 38 102 L 38 101 L 39 100 L 39 98 L 41 96 L 41 95 L 42 94 L 42 92 L 44 90 L 44 89 L 45 88 L 45 86 L 46 85 L 46 84 L 47 83 L 47 82 L 48 81 L 48 80 L 49 79 L 49 78 L 50 77 L 50 76 L 51 75 L 51 74 L 52 73 L 52 72 L 53 71 L 53 70 L 54 69 L 54 68 L 55 67 L 55 66 L 56 65 L 56 64 L 57 63 L 57 61 L 58 60 L 58 59 L 60 57 L 60 55 L 61 54 L 61 53 L 62 52 L 62 51 L 63 50 L 63 49 L 64 48 L 64 47 L 65 46 L 65 45 L 66 44 L 66 43 L 67 42 L 67 41 L 68 40 L 68 39 L 69 38 L 69 37 L 70 36 L 70 35 L 72 33 L 74 35 L 74 36 L 75 37 L 75 38 L 76 39 L 76 41 L 78 43 L 78 44 L 79 45 L 79 47 L 80 48 L 80 49 L 81 50 L 81 51 L 82 52 L 82 53 L 83 54 L 83 55 L 84 56 L 84 57 L 85 58 L 85 59 L 86 60 L 86 61 L 87 62 L 87 63 L 88 64 L 88 65 L 89 66 L 89 67 L 90 68 L 90 69 L 91 70 L 91 71 L 92 72 L 92 73 L 93 74 L 93 75 L 94 76 L 94 78 L 96 80 L 96 81 L 97 82 L 97 84 L 98 85 L 98 86 L 99 87 L 99 88 L 100 89 L 100 90 L 101 91 L 101 92 L 102 93 L 102 94 L 103 95 L 103 96 L 104 97 L 104 98 L 105 99 L 105 100 L 106 101 L 106 102 L 107 103 L 130 103 L 130 102 L 129 101 L 129 99 L 127 97 L 127 96 L 126 95 L 126 93 L 124 91 L 124 90 L 123 89 L 123 87 L 121 85 L 121 84 L 120 83 L 120 81 L 119 80 L 119 79 L 117 77 L 117 75 L 116 74 L 116 73 L 114 71 L 114 69 L 113 68 L 113 67 L 111 65 L 111 63 L 110 62 L 110 61 L 108 59 L 108 57 L 107 56 L 107 55 L 105 53 L 105 51 L 104 50 L 104 49 L 102 47 L 102 45 L 101 44 L 101 43 L 99 41 L 99 39 L 98 38 L 98 37 L 97 36 L 97 35 L 96 34 L 96 33 L 95 32 L 95 31 L 94 30 L 94 29 L 93 28 L 93 27 L 91 25 L 91 24 L 90 23 L 90 21 L 88 19 L 88 18 L 87 17 L 87 15 L 85 13 L 85 12 L 84 11 L 84 9 L 83 8 Z M 692 9 L 690 11 L 689 11 L 688 12 L 687 12 L 686 13 L 685 13 L 684 14 L 683 14 L 680 17 L 679 17 L 670 26 L 670 27 L 668 29 L 668 30 L 667 31 L 667 32 L 666 33 L 666 34 L 665 35 L 665 36 L 664 37 L 664 39 L 663 40 L 663 42 L 662 43 L 662 46 L 661 47 L 661 63 L 662 64 L 662 68 L 663 69 L 663 70 L 664 71 L 664 74 L 665 75 L 665 76 L 666 77 L 666 78 L 667 79 L 667 80 L 670 83 L 670 84 L 673 87 L 673 88 L 674 88 L 676 90 L 676 91 L 677 91 L 680 94 L 681 94 L 684 97 L 685 97 L 686 98 L 687 98 L 689 100 L 691 100 L 692 101 L 693 101 L 694 102 L 696 102 L 697 103 L 700 103 L 701 104 L 703 104 L 704 105 L 708 105 L 709 106 L 727 106 L 728 105 L 732 105 L 733 104 L 736 104 L 737 103 L 739 103 L 740 102 L 741 102 L 742 101 L 743 101 L 744 100 L 746 100 L 748 98 L 749 98 L 751 96 L 752 96 L 754 94 L 755 94 L 761 88 L 761 87 L 759 85 L 759 84 L 753 78 L 753 77 L 748 72 L 746 72 L 745 73 L 745 74 L 744 75 L 743 75 L 740 78 L 739 78 L 737 80 L 736 80 L 735 81 L 733 81 L 732 82 L 731 82 L 730 83 L 727 83 L 726 84 L 709 84 L 708 83 L 704 83 L 703 82 L 702 82 L 701 81 L 700 81 L 699 80 L 698 80 L 697 79 L 696 79 L 694 77 L 693 77 L 687 71 L 687 70 L 685 68 L 685 67 L 684 66 L 684 63 L 683 62 L 683 49 L 684 48 L 684 45 L 685 44 L 685 43 L 687 41 L 687 40 L 690 37 L 690 36 L 691 35 L 692 35 L 695 32 L 696 32 L 697 31 L 698 31 L 699 30 L 700 30 L 701 29 L 703 29 L 704 28 L 707 28 L 708 27 L 711 27 L 712 26 L 724 26 L 725 27 L 728 27 L 729 28 L 731 28 L 732 29 L 734 29 L 735 30 L 736 30 L 738 32 L 739 32 L 741 34 L 742 34 L 747 39 L 748 39 L 751 36 L 751 35 L 752 34 L 753 34 L 753 33 L 758 28 L 758 27 L 761 24 L 761 22 L 759 20 L 758 20 L 753 15 L 752 15 L 751 14 L 750 14 L 748 12 L 746 12 L 745 11 L 744 11 L 743 10 L 742 10 L 741 9 L 740 9 L 739 8 L 737 8 L 736 7 L 734 7 L 733 6 L 728 6 L 727 5 L 707 5 L 706 6 L 701 6 L 700 7 L 699 7 L 698 8 L 695 8 L 694 9 Z M 149 15 L 146 18 L 145 18 L 139 24 L 139 25 L 136 28 L 136 29 L 135 30 L 135 31 L 134 32 L 134 33 L 133 34 L 133 35 L 132 36 L 132 37 L 131 38 L 131 40 L 130 41 L 130 45 L 129 46 L 129 52 L 128 53 L 128 57 L 129 58 L 129 64 L 130 65 L 130 69 L 131 70 L 131 72 L 132 73 L 132 74 L 133 75 L 133 77 L 134 78 L 134 79 L 136 81 L 136 82 L 139 85 L 139 86 L 146 93 L 147 93 L 150 96 L 151 96 L 152 97 L 153 97 L 155 99 L 156 99 L 157 100 L 158 100 L 159 101 L 161 101 L 162 102 L 163 102 L 164 103 L 167 103 L 168 104 L 171 104 L 172 105 L 176 105 L 177 106 L 195 106 L 196 105 L 200 105 L 201 104 L 203 104 L 204 103 L 207 103 L 208 102 L 209 102 L 210 101 L 211 101 L 212 100 L 213 100 L 214 99 L 215 99 L 217 97 L 218 97 L 220 95 L 221 95 L 224 92 L 225 92 L 229 88 L 229 87 L 223 81 L 223 80 L 216 73 L 216 72 L 214 72 L 209 77 L 208 77 L 205 80 L 203 80 L 202 81 L 201 81 L 200 82 L 199 82 L 198 83 L 194 83 L 193 84 L 177 84 L 176 83 L 172 83 L 171 82 L 170 82 L 169 81 L 167 81 L 166 80 L 165 80 L 164 79 L 163 79 L 160 76 L 159 76 L 156 73 L 156 72 L 154 70 L 154 69 L 153 68 L 153 67 L 152 66 L 152 65 L 151 64 L 151 61 L 150 60 L 150 50 L 151 49 L 151 47 L 152 46 L 152 44 L 153 43 L 153 42 L 155 40 L 155 39 L 160 34 L 161 34 L 164 31 L 166 31 L 168 29 L 170 29 L 171 28 L 175 28 L 176 27 L 178 27 L 179 26 L 191 26 L 192 27 L 195 27 L 196 28 L 198 28 L 199 29 L 201 29 L 202 30 L 203 30 L 204 31 L 205 31 L 206 32 L 207 32 L 214 39 L 216 39 L 216 38 L 222 32 L 222 31 L 228 25 L 228 24 L 229 23 L 224 18 L 223 18 L 220 15 L 219 15 L 217 13 L 216 13 L 215 12 L 214 12 L 213 11 L 212 11 L 211 10 L 210 10 L 209 9 L 207 9 L 206 8 L 204 8 L 203 7 L 201 7 L 200 6 L 196 6 L 195 5 L 175 5 L 174 6 L 169 6 L 168 7 L 166 7 L 165 8 L 163 8 L 162 9 L 160 9 L 159 10 L 158 10 L 157 11 L 156 11 L 155 12 L 154 12 L 152 14 L 151 14 L 150 15 Z" fill="#000000" fill-rule="evenodd" clip-rule="evenodd"/>
</svg>
